<svg xmlns="http://www.w3.org/2000/svg" viewBox="0 0 141.56 131.3"><defs><style>.cls-1{fill:#fff;}</style></defs><g id="레이어_2" data-name="레이어 2"><g id="Layer_1" data-name="Layer 1"><path class="cls-1" d="M30.89,48.45a4.88,4.88,0,1,0,4.88,4.87A4.87,4.87,0,0,0,30.89,48.45Z"/><path class="cls-1" d="M79,47.94a5.25,5.25,0,1,0,5.25,5.25A5.25,5.25,0,0,0,79,47.94Z"/><path class="cls-1" d="M122.63,0H18.94A18.94,18.94,0,0,0,0,18.94V80.48A18.93,18.93,0,0,0,18.94,99.41H55.56L68,128.76s.85,2.54,2.93,2.54h0c2.08,0,2.93-2.54,2.93-2.54L86.34,99.41h36.29a18.93,18.93,0,0,0,18.93-18.93V18.94A18.94,18.94,0,0,0,122.63,0ZM44.47,54.4C44.42,65.65,32.78,66,32.78,66a9.71,9.71,0,0,1-7-3v2H17.28V30.08s0,0,0,0v0c.52.09,8.47,0,8.47,0V43.42c2-3.39,7.75-3.34,7.75-3.34C46,41.25,44.47,54.4,44.47,54.4ZM59.39,41.16V65.08H51.1V41.4c0-3.23-4-4.12-4-4.12V28.93C60.34,29.47,59.39,41.16,59.39,41.16ZM79,66c-7.67,0-13.9-5.73-13.9-12.8S71.37,40.4,79,40.4s13.9,5.72,13.9,12.79S86.72,66,79,66Zm45.42,0s.12,12.15-12.22,12.15h-3.76V70.26h2.26s5.19.48,5.13-7.51c0,0-1,3.24-8.29,3.24,0,0-10.32-.75-10.32-10.82V51.36s.24-10.44,11.57-11.28a8.46,8.46,0,0,1,7.22,3.22V40.74h8.41Z"/><path class="cls-1" d="M111.28,48.06a5.13,5.13,0,1,0,5.13,5.13A5.13,5.13,0,0,0,111.28,48.06Z"/></g></g></svg>